<?xml version="1.0" encoding="UTF-8"?>
<svg width="512" height="512" viewBox="0 0 512 512" xmlns="http://www.w3.org/2000/svg" role="img" aria-labelledby="logo-title logo-desc">
  <title id="logo-title">D&amp;M Tesisat Logosu</title>
  <desc id="logo-desc">Mavi degrade daire içinde boru formunda D harfi, mor tonlarda M harfi ve önünde yer alan su damlası ile D&amp;M Tesisat yazısı</desc>
  <defs>
    <linearGradient id="bg" x1="0%" y1="0%" x2="100%" y2="100%">
      <stop offset="0%" stop-color="#0d47a1" />
      <stop offset="55%" stop-color="#2563eb" />
      <stop offset="100%" stop-color="#38bdf8" />
    </linearGradient>
    <radialGradient id="glow" cx="32%" cy="30%" r="65%">
      <stop offset="0%" stop-color="#ffffff" stop-opacity="0.45" />
      <stop offset="100%" stop-color="#ffffff" stop-opacity="0" />
    </radialGradient>
    <linearGradient id="pipe" x1="15%" y1="10%" x2="85%" y2="90%">
      <stop offset="0%" stop-color="#e0f2fe" />
      <stop offset="45%" stop-color="#bae6fd" />
      <stop offset="100%" stop-color="#0284c7" />
    </linearGradient>
    <linearGradient id="accent" x1="20%" y1="0%" x2="80%" y2="100%">
      <stop offset="0%" stop-color="#f0abfc" />
      <stop offset="45%" stop-color="#a855f7" />
      <stop offset="100%" stop-color="#60a5fa" />
    </linearGradient>
    <linearGradient id="drop" x1="50%" y1="0%" x2="50%" y2="100%">
      <stop offset="0%" stop-color="#7dd3fc" />
      <stop offset="100%" stop-color="#0369a1" />
    </linearGradient>
  </defs>

  <circle cx="256" cy="256" r="236" fill="url(#bg)" />
  <circle cx="210" cy="176" r="180" fill="url(#glow)" opacity="0.55" />
  <circle cx="256" cy="256" r="236" fill="none" stroke="#f8fafc" stroke-opacity="0.35" stroke-width="10" />

  <path
    fill="url(#pipe)"
    fill-rule="evenodd"
    d="M152 140h88c74 0 134 60 134 134s-60 134-134 134h-88zm44 48v148h44c46 0 84-38 84-84s-38-84-84-84z"
  />

  <g fill="#e0f2fe" opacity="0.6">
    <rect x="164" y="176" width="40" height="24" rx="12" />
    <rect x="164" y="320" width="32" height="24" rx="12" />
    <circle cx="208" cy="268" r="16" />
  </g>

  <path
    fill="url(#accent)"
    d="M248 140h48l44 124 44-124h48v240h-44v-142l-44 142h-8l-44-142v142h-44z"
  />

  <path
    fill="url(#drop)"
    d="M356 268C312 336 300 364 300 400c0 36 28 64 56 64s56-28 56-64c0-40-12-68-56-132z"
  />
  <path
    fill="#e0f2fe"
    opacity="0.7"
    d="M356 300c-22 34-30 52-30 80 0 18 14 32 30 32s30-14 30-32c0-28-8-46-30-80z"
  />
  <circle cx="332" cy="344" r="12" fill="#f8fafc" opacity="0.6" />

  <text
    x="256"
    y="426"
    text-anchor="middle"
    font-family="'Poppins', 'Segoe UI', 'Helvetica Neue', Arial, sans-serif"
    font-weight="700"
    font-size="56"
    letter-spacing="8"
    fill="#f8fafc"
  >
    D&amp;M
  </text>
  <text
    x="256"
    y="468"
    text-anchor="middle"
    font-family="'Poppins', 'Segoe UI', 'Helvetica Neue', Arial, sans-serif"
    font-weight="500"
    font-size="24"
    letter-spacing="6"
    fill="#bfdbfe"
  >
    TESİSAT
  </text>
</svg>
