<svg xmlns="http://www.w3.org/2000/svg" viewBox="0 0 128 128" role="img" aria-labelledby="title desc">
  <title id="title">D&amp;M Tesisat Logosu</title>
  <desc id="desc">Mavi ve camgöbeği geçişli arka plan üzerinde D ve M harfleri ile ortasında ampersand sembolü</desc>
  <defs>
    <linearGradient id="dmGradient" x1="0%" y1="0%" x2="100%" y2="100%">
      <stop offset="0%" stop-color="#0d47a1" />
      <stop offset="60%" stop-color="#2563eb" />
      <stop offset="100%" stop-color="#38bdf8" />
    </linearGradient>
    <linearGradient id="ampGradient" x1="0%" y1="0%" x2="100%" y2="100%">
      <stop offset="0%" stop-color="#f8fafc" stop-opacity="0.9" />
      <stop offset="100%" stop-color="#e2e8f0" stop-opacity="0.9" />
    </linearGradient>
    <filter id="softShadow" x="-10%" y="-10%" width="120%" height="120%">
      <feDropShadow dx="0" dy="6" stdDeviation="8" flood-color="#020617" flood-opacity="0.25" />
    </filter>
  </defs>
  <rect x="10" y="10" width="108" height="108" rx="28" fill="url(#dmGradient)" filter="url(#softShadow)" />
  <g fill="#f8fafc">
    <path d="M40 38h18c15.8 0 28 11.4 28 26s-12.2 26-28 26H40Z" opacity="0.9" />
    <path d="M50 48v32h8c9.5 0 17-7 17-16s-7.5-16-17-16Z" />
    <path d="M74 90l12-32h9l12 32h-9.4l-2.3-6.6h-9.8L83.2 90Zm15-13.6h5.6L87.7 60Z" />
  </g>
  <path
    d="M62.5 70.3c-4.3-3.4-5.7-8.2-3.2-12 1.8-2.8 5.5-4.4 9.5-4.1 0.2-3.5 2.4-6.8 5.8-8.4 3.7-1.8 7.8-0.9 10.5 2.1l-4.2 4.4c-1.2-1.4-2.8-1.6-4.1-0.9-1.4 0.7-2.2 2.4-1.7 4.2 4.1 0.7 7.5 3.2 8.7 6.5 1.3 3.5 0.1 7.3-3.2 10l-4.8-4.3c1.8-1.2 2.5-2.8 2-4.2-0.5-1.4-2.1-2.4-4-2.5-0.6 3.4-3 6.2-6 7.3-3.2 1.1-6.5 0.3-8.6-1.9Z"
    fill="url(#ampGradient)"
  />
</svg>
