<svg xmlns="http://www.w3.org/2000/svg" viewBox="0 0 1600 1067" role="img" aria-labelledby="title desc">
  <title id="title">Kombi ve petek montajı illüstrasyonu</title>
  <desc id="desc">Kombi ve radyatör montajını temsil eden borular, göstergeler ve sıcaklık simgeleri.</desc>
  <defs>
    <linearGradient id="kombi-bg" x1="0" x2="1" y1="0" y2="1">
      <stop offset="0%" stop-color="#13253f" />
      <stop offset="60%" stop-color="#163d63" />
      <stop offset="100%" stop-color="#1e4d7f" />
    </linearGradient>
    <linearGradient id="panel" x1="0" x2="0" y1="0" y2="1">
      <stop offset="0%" stop-color="#ffffff" stop-opacity="0.95" />
      <stop offset="100%" stop-color="#d9e7ff" stop-opacity="0.9" />
    </linearGradient>
    <linearGradient id="pipe-warm" x1="0" x2="1" y1="0" y2="1">
      <stop offset="0%" stop-color="#ff8a65" />
      <stop offset="100%" stop-color="#ffbe76" />
    </linearGradient>
    <linearGradient id="pipe-cool" x1="0" x2="1" y1="0" y2="1">
      <stop offset="0%" stop-color="#4facfe" />
      <stop offset="100%" stop-color="#00f2fe" />
    </linearGradient>
  </defs>
  <rect width="1600" height="1067" fill="url(#kombi-bg)" />
  <g opacity="0.4">
    <rect x="0" y="640" width="1600" height="200" fill="#0d1729" />
    <rect x="0" y="840" width="1600" height="120" fill="#08101f" />
  </g>
  <g transform="translate(240 240)">
    <rect x="0" y="0" width="780" height="540" rx="60" fill="#0f1d33" opacity="0.7" />
    <rect x="64" y="64" width="652" height="412" rx="46" fill="url(#panel)" />
    <g transform="translate(120 120)" fill="#1e4d7f" opacity="0.35">
      <rect x="0" y="0" width="520" height="28" rx="14" />
      <rect x="0" y="60" width="520" height="28" rx="14" />
      <rect x="0" y="120" width="520" height="28" rx="14" />
      <rect x="0" y="180" width="520" height="28" rx="14" />
      <rect x="0" y="240" width="520" height="28" rx="14" />
    </g>
    <g transform="translate(120 120)">
      <rect x="0" y="0" width="84" height="300" rx="30" fill="#e6eefc" stroke="#b3c6e5" stroke-width="6" />
      <rect x="140" y="0" width="84" height="300" rx="30" fill="#e6eefc" stroke="#b3c6e5" stroke-width="6" />
      <rect x="280" y="0" width="84" height="300" rx="30" fill="#e6eefc" stroke="#b3c6e5" stroke-width="6" />
      <rect x="420" y="0" width="84" height="300" rx="30" fill="#e6eefc" stroke="#b3c6e5" stroke-width="6" />
    </g>
    <g transform="translate(120 440)" fill="none" stroke-width="18" stroke-linecap="round" stroke-linejoin="round">
      <path d="M0 0h520" stroke="url(#pipe-warm)" />
      <path d="M520 0c80 0 140 40 200 120" stroke="url(#pipe-warm)" />
      <path d="M0 60h520" stroke="url(#pipe-cool)" />
      <path d="M520 60c90 0 150 30 210 110" stroke="url(#pipe-cool)" />
    </g>
  </g>
  <g transform="translate(1040 320)">
    <rect x="0" y="0" width="280" height="420" rx="46" fill="url(#panel)" />
    <rect x="34" y="48" width="212" height="150" rx="30" fill="#122c4c" />
    <g transform="translate(80 84)">
      <circle cx="0" cy="0" r="30" fill="#ff8a65" opacity="0.9" />
      <circle cx="62" cy="0" r="30" fill="#4facfe" opacity="0.9" />
      <circle cx="31" cy="62" r="22" fill="#c8d9ff" opacity="0.8" />
    </g>
    <g transform="translate(46 240)" fill="none" stroke-linecap="round" stroke-width="16">
      <path d="M0 60c34-40 68-60 112-60 44 0 78 20 112 60" stroke="#ffb86c" />
      <path d="M0 120c34 42 68 62 112 62 44 0 78-20 112-62" stroke="#4dd0ff" />
    </g>
    <rect x="72" y="332" width="136" height="48" rx="24" fill="#122c4c" />
    <rect x="98" y="346" width="84" height="20" rx="10" fill="#ffffff" opacity="0.8" />
  </g>
  <g opacity="0.35" fill="#4dd0ff">
    <circle cx="1180" cy="260" r="34" />
    <circle cx="1260" cy="220" r="20" />
    <circle cx="1340" cy="300" r="26" />
    <circle cx="1420" cy="240" r="18" />
    <circle cx="1500" cy="320" r="24" />
  </g>
  <g opacity="0.3" fill="#ffaf82">
    <circle cx="360" cy="220" r="28" />
    <circle cx="440" cy="180" r="18" />
    <circle cx="520" cy="210" r="22" />
    <circle cx="600" cy="170" r="16" />
  </g>
</svg>
