<svg xmlns="http://www.w3.org/2000/svg" viewBox="0 0 1600 1067" role="img" aria-labelledby="title desc">
  <title id="title">Petek temizliği illüstrasyonu</title>
  <desc id="desc">Petek temizleme makinesi ve radyatör yüzeyini soyut şekilde gösteren illüstrasyon.</desc>
  <defs>
    <linearGradient id="petek-bg" x1="0" x2="1" y1="0" y2="1">
      <stop offset="0%" stop-color="#1d2b64" />
      <stop offset="60%" stop-color="#283c86" />
      <stop offset="100%" stop-color="#2f80ed" />
    </linearGradient>
    <linearGradient id="petek-bars" x1="0" x2="0" y1="0" y2="1">
      <stop offset="0%" stop-color="#fff7d6" stop-opacity="0.9" />
      <stop offset="100%" stop-color="#ffd89b" stop-opacity="0.75" />
    </linearGradient>
    <linearGradient id="machine" x1="0" x2="1" y1="0" y2="1">
      <stop offset="0%" stop-color="#fafcff" />
      <stop offset="100%" stop-color="#c8d9ff" />
    </linearGradient>
    <linearGradient id="hose" x1="0" x2="1" y1="0" y2="1">
      <stop offset="0%" stop-color="#34a0ff" />
      <stop offset="100%" stop-color="#4be4ff" />
    </linearGradient>
  </defs>
  <rect width="1600" height="1067" fill="url(#petek-bg)" />
  <g opacity="0.45">
    <rect x="0" y="620" width="1600" height="180" fill="#101c3a" />
    <rect x="0" y="800" width="1600" height="120" fill="#0c1327" />
  </g>
  <g transform="translate(240 240)">
    <rect x="0" y="0" width="760" height="540" rx="60" fill="#101c3a" opacity="0.7" />
    <rect x="60" y="60" width="640" height="420" rx="46" fill="#182956" stroke="#3c5aa9" stroke-width="12" />
    <g transform="translate(120 120)" fill="url(#petek-bars)" stroke="#fbd079" stroke-width="6" stroke-linejoin="round">
      <rect x="0" y="0" width="70" height="300" rx="26" />
      <rect x="120" y="0" width="70" height="300" rx="26" />
      <rect x="240" y="0" width="70" height="300" rx="26" />
      <rect x="360" y="0" width="70" height="300" rx="26" />
      <rect x="480" y="0" width="70" height="300" rx="26" />
    </g>
    <g transform="translate(90 110)" stroke="#fbd079" stroke-width="6" stroke-linecap="round" opacity="0.6">
      <path d="M0 0h580" />
      <path d="M0 50h580" />
      <path d="M0 100h580" />
      <path d="M0 150h580" />
      <path d="M0 200h580" />
      <path d="M0 250h580" />
    </g>
  </g>
  <g transform="translate(1020 390)">
    <rect x="0" y="0" width="320" height="240" rx="40" fill="url(#machine)" />
    <rect x="36" y="40" width="248" height="90" rx="24" fill="#1b2c58" />
    <circle cx="96" cy="86" r="26" fill="#ff6b6b" opacity="0.8" />
    <circle cx="172" cy="86" r="26" fill="#51eaea" opacity="0.8" />
    <rect x="118" y="156" width="84" height="40" rx="20" fill="#1b2c58" />
    <rect x="130" y="166" width="60" height="20" rx="10" fill="#c8d9ff" />
  </g>
  <path d="M1150 480c120 40 190 120 260 160" fill="none" stroke="url(#hose)" stroke-width="20" stroke-linecap="round" stroke-linejoin="round" opacity="0.8" />
  <path d="M1390 640c40-60 72-100 130-120" fill="none" stroke="#4be4ff" stroke-width="16" stroke-linecap="round" opacity="0.6" />
  <g opacity="0.35" fill="#51eaea">
    <circle cx="1180" cy="340" r="28" />
    <circle cx="1260" cy="320" r="18" />
    <circle cx="1340" cy="360" r="24" />
    <circle cx="1420" cy="300" r="16" />
  </g>
  <g opacity="0.4" fill="#ffe29f">
    <circle cx="360" cy="190" r="32" />
    <circle cx="480" cy="160" r="20" />
    <circle cx="600" cy="180" r="26" />
    <circle cx="720" cy="150" r="18" />
  </g>
</svg>
