<svg xmlns="http://www.w3.org/2000/svg" viewBox="0 0 1600 1067" role="img" aria-labelledby="title desc">
  <title id="title">Su kaçağı tespiti illüstrasyonu</title>
  <desc id="desc">Sensörlerle boru hattındaki su kaçaklarını kontrol eden teknisyeni betimleyen soyut çizim.</desc>
  <defs>
    <linearGradient id="bg" x1="0" x2="1" y1="0" y2="1">
      <stop offset="0%" stop-color="#0b2b60" />
      <stop offset="60%" stop-color="#0e4a92" />
      <stop offset="100%" stop-color="#0a2b6f" />
    </linearGradient>
    <radialGradient id="glow" cx="50%" cy="35%" r="60%">
      <stop offset="0%" stop-color="#44d2ff" stop-opacity="0.55" />
      <stop offset="60%" stop-color="#1a7ad8" stop-opacity="0.15" />
      <stop offset="100%" stop-color="#0b2b60" stop-opacity="0" />
    </radialGradient>
    <linearGradient id="pipe" x1="0" x2="0" y1="0" y2="1">
      <stop offset="0%" stop-color="#7ac5ff" />
      <stop offset="100%" stop-color="#3a8cd9" />
    </linearGradient>
    <linearGradient id="device" x1="0" x2="1" y1="0" y2="1">
      <stop offset="0%" stop-color="#ffffff" stop-opacity="0.95" />
      <stop offset="100%" stop-color="#8fd2ff" stop-opacity="0.9" />
    </linearGradient>
  </defs>
  <rect width="1600" height="1067" fill="url(#bg)" />
  <rect width="1600" height="1067" fill="url(#glow)" />
  <g fill="#0c366d" opacity="0.45">
    <path d="M0 780h1600v120H0z" />
    <path d="M0 900h1600v80H0z" />
  </g>
  <g fill="none" stroke="#103e7c" stroke-width="16" opacity="0.35">
    <path d="M180 360h1240v120H180z" />
    <path d="M320 540h960v120H320z" />
    <path d="M460 720h680v100H460z" />
  </g>
  <g fill="url(#pipe)" stroke="#a8ddff" stroke-width="6" stroke-linejoin="round">
    <rect x="300" y="320" width="60" height="420" rx="20" />
    <rect x="420" y="420" width="760" height="70" rx="35" />
    <rect x="1180" y="260" width="70" height="520" rx="25" />
  </g>
  <g opacity="0.5" stroke="#4ed4ff" stroke-width="10" stroke-linecap="round">
    <path d="M470 456h220" />
    <path d="M470 486h220" />
    <path d="M470 516h220" />
  </g>
  <g transform="translate(940 360)">
    <rect x="0" y="0" width="280" height="220" rx="32" fill="url(#device)" />
    <rect x="34" y="36" width="212" height="92" rx="18" fill="#0f3f83" />
    <circle cx="84" cy="82" r="22" fill="#12d0ff" opacity="0.7" />
    <circle cx="142" cy="82" r="22" fill="#12d0ff" opacity="0.5" />
    <rect x="74" y="148" width="132" height="28" rx="14" fill="#0f3f83" />
    <rect x="104" y="152" width="72" height="20" rx="10" fill="#ffffff" opacity="0.7" />
  </g>
  <g transform="translate(1050 430)">
    <circle cx="180" cy="200" r="120" fill="none" stroke="#54d8ff" stroke-width="14" opacity="0.5" />
    <circle cx="180" cy="200" r="170" fill="none" stroke="#8be9ff" stroke-width="10" stroke-dasharray="40 24" opacity="0.4" />
    <circle cx="180" cy="200" r="210" fill="none" stroke="#48b6ff" stroke-width="8" stroke-dasharray="20 18" opacity="0.3" />
    <g transform="translate(140 160)">
      <rect x="0" y="0" width="80" height="110" rx="20" fill="#112a52" opacity="0.9" />
      <rect x="12" y="16" width="56" height="50" rx="10" fill="#1e5ea8" />
      <circle cx="40" cy="82" r="14" fill="#22e6ff" />
      <circle cx="40" cy="82" r="8" fill="#ffffff" opacity="0.9" />
    </g>
    <path d="M180 200l-86 110" stroke="#2cf0ff" stroke-width="10" stroke-linecap="round" />
    <circle cx="94" cy="310" r="28" fill="#0b2b60" stroke="#48c0ff" stroke-width="6" />
    <circle cx="94" cy="310" r="14" fill="#53f3ff" />
    <path d="M94 310c-26 48-88 64-152 32" fill="none" stroke="#2cf0ff" stroke-width="8" stroke-linecap="round" opacity="0.4" />
  </g>
  <g opacity="0.35" fill="#66d0ff">
    <circle cx="240" cy="250" r="36" />
    <circle cx="360" cy="220" r="18" />
    <circle cx="520" cy="260" r="28" />
    <circle cx="760" cy="220" r="18" />
    <circle cx="900" cy="260" r="30" />
    <circle cx="1080" cy="240" r="20" />
  </g>
</svg>
