<svg xmlns="http://www.w3.org/2000/svg" viewBox="0 0 1600 1067" role="img" aria-labelledby="title desc">
  <title id="title">Su tesisatı tamiratı illüstrasyonu</title>
  <desc id="desc">Su tesisatı onarımı için anahtar, contalar ve boru hatlarını gösteren illüstrasyon.</desc>
  <defs>
    <linearGradient id="tamir-bg" x1="0" x2="1" y1="0" y2="1">
      <stop offset="0%" stop-color="#1a2233" />
      <stop offset="60%" stop-color="#2f3a56" />
      <stop offset="100%" stop-color="#1f3c7a" />
    </linearGradient>
    <linearGradient id="wrench" x1="0" x2="1" y1="0" y2="1">
      <stop offset="0%" stop-color="#ffd194" />
      <stop offset="100%" stop-color="#f07f72" />
    </linearGradient>
    <linearGradient id="pipe-ring" x1="0" x2="1" y1="0" y2="1">
      <stop offset="0%" stop-color="#63a4ff" />
      <stop offset="100%" stop-color="#83eaf1" />
    </linearGradient>
    <linearGradient id="repair-pipe" x1="0" x2="1" y1="0" y2="1">
      <stop offset="0%" stop-color="#40c9ff" />
      <stop offset="100%" stop-color="#4a69ff" />
    </linearGradient>
  </defs>
  <rect width="1600" height="1067" fill="url(#tamir-bg)" />
  <g opacity="0.45">
    <rect x="0" y="640" width="1600" height="200" fill="#131a2b" />
    <rect x="0" y="840" width="1600" height="120" fill="#0d1422" />
  </g>
  <g fill="none" stroke-width="24" stroke-linecap="round" stroke-linejoin="round" opacity="0.6">
    <path d="M220 320h280c60 0 90 30 120 70l50 70c20 30 40 50 90 50h360c80 0 140 40 190 120l50 80" stroke="#50a0ff" />
    <path d="M220 420h260c60 0 110 40 140 90l30 50c18 30 40 50 70 50h320c70 0 110 30 150 90l40 60" stroke="#20d0ff" opacity="0.5" />
  </g>
  <g transform="translate(320 280) rotate(-18)">
    <rect x="0" y="0" width="440" height="120" rx="60" fill="url(#wrench)" />
    <rect x="80" y="36" width="200" height="48" rx="24" fill="#fbe2cf" opacity="0.6" />
    <circle cx="60" cy="60" r="36" fill="#fbe2cf" opacity="0.7" />
    <circle cx="380" cy="60" r="36" fill="#fbe2cf" opacity="0.7" />
  </g>
  <g transform="translate(1040 360)">
    <circle cx="120" cy="160" r="140" fill="none" stroke="url(#pipe-ring)" stroke-width="24" />
    <circle cx="120" cy="160" r="80" fill="none" stroke="#a6f2ff" stroke-width="14" stroke-dasharray="30 24" opacity="0.6" />
    <circle cx="120" cy="160" r="40" fill="#0e2238" stroke="#9cefff" stroke-width="12" />
    <g transform="rotate(-28 120 160)">
      <rect x="110" y="90" width="20" height="70" rx="10" fill="#9cefff" opacity="0.8" />
      <rect x="116" y="110" width="8" height="30" rx="4" fill="#ffffff" opacity="0.8" />
    </g>
  </g>
  <g transform="translate(980 640)">
    <rect x="0" y="0" width="340" height="120" rx="40" fill="url(#repair-pipe)" />
    <rect x="40" y="32" width="120" height="56" rx="20" fill="#0d1d44" />
    <rect x="180" y="32" width="120" height="56" rx="20" fill="#0d1d44" />
    <rect x="60" y="44" width="80" height="32" rx="16" fill="#4de7ff" opacity="0.8" />
    <rect x="200" y="44" width="80" height="32" rx="16" fill="#4de7ff" opacity="0.8" />
  </g>
  <g opacity="0.35" fill="#4de7ff">
    <circle cx="1260" cy="300" r="28" />
    <circle cx="1340" cy="260" r="18" />
    <circle cx="1420" cy="320" r="22" />
    <circle cx="1500" cy="280" r="16" />
  </g>
  <g opacity="0.3" fill="#f07f72">
    <circle cx="360" cy="200" r="26" />
    <circle cx="440" cy="170" r="18" />
    <circle cx="520" cy="210" r="20" />
    <circle cx="600" cy="180" r="16" />
  </g>
</svg>
